<svg width="71" height="13" viewBox="0 0 71 13" fill="none" xmlns="http://www.w3.org/2000/svg">
<path d="M0.157875 12.5541V3.93124H2.54936V12.5541H0.157875ZM1.35923 2.8197C1.00369 2.8197 0.698673 2.70181 0.44418 2.46603C0.19343 2.22651 0.0680542 1.9402 0.0680542 1.60712C0.0680542 1.27777 0.19343 0.995212 0.44418 0.759432C0.698673 0.519908 1.00369 0.400146 1.35923 0.400146C1.71477 0.400146 2.01792 0.519908 2.26867 0.759432C2.52316 0.995212 2.65041 1.27777 2.65041 1.60712C2.65041 1.9402 2.52316 2.22651 2.26867 2.46603C2.01792 2.70181 1.71477 2.8197 1.35923 2.8197Z" fill="#6969F4"/>
<path d="M6.85656 7.56899V12.5541H4.46508V3.93124H6.74429V5.45258H6.84534C7.03621 4.95108 7.35619 4.55437 7.8053 4.26245C8.25441 3.96679 8.79894 3.81896 9.43892 3.81896C10.0377 3.81896 10.5598 3.94995 11.0052 4.21193C11.4505 4.47391 11.7967 4.84816 12.0437 5.33469C12.2907 5.81748 12.4142 6.39383 12.4142 7.06375V12.5541H10.0228V7.4904C10.0265 6.9627 9.89177 6.55102 9.61856 6.25536C9.34536 5.95596 8.96923 5.80625 8.49019 5.80625C8.16833 5.80625 7.88389 5.87549 7.63689 6.01396C7.39362 6.15244 7.20275 6.35454 7.06428 6.62026C6.92954 6.88224 6.86031 7.19848 6.85656 7.56899Z" fill="#6969F4"/>
<path d="M18.9361 3.93124V5.72766H13.6142V3.93124H18.9361ZM14.8324 12.5541V3.3081C14.8324 2.6831 14.954 2.16476 15.1973 1.75308C15.4443 1.3414 15.7811 1.03264 16.2078 0.826797C16.6344 0.620957 17.1191 0.518037 17.6618 0.518037C18.0285 0.518037 18.3635 0.546106 18.6666 0.602245C18.9735 0.658383 19.2018 0.708907 19.3515 0.753817L18.9249 2.55024C18.8313 2.5203 18.7153 2.49223 18.5768 2.46603C18.4421 2.43983 18.3036 2.42674 18.1614 2.42674C17.8096 2.42674 17.5645 2.50907 17.426 2.67374C17.2875 2.83467 17.2183 3.0611 17.2183 3.35302V12.5541H14.8324Z" fill="#6969F4"/>
<path d="M23.9843 12.7225C23.1123 12.7225 22.3582 12.5372 21.722 12.1667C21.0895 11.7925 20.6011 11.2722 20.2567 10.6061C19.9124 9.93615 19.7403 9.15957 19.7403 8.27633C19.7403 7.38561 19.9124 6.60716 20.2567 5.94099C20.6011 5.27107 21.0895 4.75086 21.722 4.38034C22.3582 4.00609 23.1123 3.81896 23.9843 3.81896C24.8563 3.81896 25.6086 4.00609 26.2411 4.38034C26.8773 4.75086 27.3676 5.27107 27.7119 5.94099C28.0562 6.60716 28.2284 7.38561 28.2284 8.27633C28.2284 9.15957 28.0562 9.93615 27.7119 10.6061C27.3676 11.2722 26.8773 11.7925 26.2411 12.1667C25.6086 12.5372 24.8563 12.7225 23.9843 12.7225ZM23.9956 10.8699C24.3923 10.8699 24.7235 10.7576 24.9892 10.5331C25.2549 10.3048 25.4551 9.99416 25.5899 9.60119C25.7283 9.20823 25.7976 8.76099 25.7976 8.25949C25.7976 7.75799 25.7283 7.31076 25.5899 6.91779C25.4551 6.52482 25.2549 6.21419 24.9892 5.9859C24.7235 5.7576 24.3923 5.64345 23.9956 5.64345C23.5951 5.64345 23.2583 5.7576 22.9851 5.9859C22.7156 6.21419 22.5116 6.52482 22.3732 6.91779C22.2384 7.31076 22.1711 7.75799 22.1711 8.25949C22.1711 8.76099 22.2384 9.20823 22.3732 9.60119C22.5116 9.99416 22.7156 10.3048 22.9851 10.5331C23.2583 10.7576 23.5951 10.8699 23.9956 10.8699Z" fill="#6969F4"/>
<path d="M29.8283 12.5541V1.05696H34.3643C35.2363 1.05696 35.9792 1.22351 36.593 1.55659C37.2067 1.88594 37.6746 2.3444 37.9964 2.93198C38.322 3.51582 38.4848 4.18947 38.4848 4.95295C38.4848 5.71643 38.3201 6.39009 37.9908 6.97393C37.6614 7.55776 37.1843 8.01248 36.5593 8.33809C35.938 8.66369 35.1858 8.82649 34.3025 8.82649H31.4114V6.87849H33.9095C34.3774 6.87849 34.7629 6.79803 35.066 6.6371C35.3729 6.47243 35.6012 6.246 35.7509 5.95783C35.9043 5.66591 35.981 5.33095 35.981 4.95295C35.981 4.57121 35.9043 4.23813 35.7509 3.95369C35.6012 3.66552 35.3729 3.44284 35.066 3.28565C34.7591 3.12472 34.3699 3.04426 33.8983 3.04426H32.2591V12.5541H29.8283Z" fill="#6969F4"/>
<path d="M43.8095 12.7225C42.9225 12.7225 42.1591 12.5428 41.5191 12.1836C40.8828 11.8205 40.3926 11.3078 40.0483 10.6454C39.7039 9.97919 39.5318 9.19139 39.5318 8.28195C39.5318 7.39496 39.7039 6.61651 40.0483 5.9466C40.3926 5.27668 40.8772 4.7546 41.5022 4.38034C42.131 4.00609 42.8683 3.81896 43.7141 3.81896C44.283 3.81896 44.8125 3.91065 45.3028 4.09404C45.7968 4.27368 46.2272 4.54502 46.594 4.90804C46.9645 5.27107 47.2527 5.72766 47.4585 6.27781C47.6643 6.82423 47.7673 7.4642 47.7673 8.19774V8.85456H40.4861V7.37251H45.5161C45.5161 7.02819 45.4413 6.72318 45.2916 6.45746C45.1419 6.19174 44.9342 5.98402 44.6684 5.83432C44.4065 5.68088 44.1014 5.60416 43.7534 5.60416C43.3904 5.60416 43.0685 5.68836 42.7878 5.85678C42.5109 6.02145 42.2938 6.24413 42.1366 6.52482C41.9794 6.80177 41.899 7.11053 41.8952 7.4511V8.86017C41.8952 9.28682 41.9738 9.65546 42.131 9.96609C42.2919 10.2767 42.5183 10.5162 42.8103 10.6847C43.1022 10.8531 43.4484 10.9373 43.8488 10.9373C44.1145 10.9373 44.3578 10.8999 44.5786 10.825C44.7994 10.7502 44.9884 10.6379 45.1456 10.4882C45.3028 10.3385 45.4226 10.1551 45.5049 9.93802L47.7167 10.084C47.6045 10.6154 47.3743 11.0795 47.0262 11.4762C46.6819 11.8692 46.2366 12.1761 45.6901 12.3969C45.1475 12.6139 44.5206 12.7225 43.8095 12.7225Z" fill="#6969F4"/>
<path d="M52.5053 12.6944C51.8504 12.6944 51.2572 12.526 50.7257 12.1892C50.198 11.8486 49.7789 11.349 49.4683 10.6903C49.1614 10.0278 49.0079 9.21571 49.0079 8.25388C49.0079 7.26585 49.167 6.44436 49.4851 5.78941C49.8032 5.13072 50.2261 4.63858 50.7538 4.31298C51.2853 3.98363 51.8672 3.81896 52.4997 3.81896C52.9825 3.81896 53.3848 3.9013 53.7067 4.06597C54.0323 4.2269 54.2943 4.429 54.4926 4.67226C54.6947 4.91179 54.8482 5.14757 54.9529 5.3796H55.0259V1.05696H57.4118V12.5541H55.054V11.1731H54.9529C54.8407 11.4126 54.6816 11.6502 54.4758 11.886C54.2737 12.1181 54.0098 12.3108 53.6842 12.4642C53.3624 12.6177 52.9694 12.6944 52.5053 12.6944ZM53.2632 10.7913C53.6487 10.7913 53.9743 10.6865 54.24 10.477C54.5095 10.2636 54.7153 9.96609 54.8575 9.58435C55.0035 9.20261 55.0765 8.75538 55.0765 8.24265C55.0765 7.72992 55.0053 7.28456 54.8631 6.90656C54.7209 6.52856 54.5151 6.23665 54.2456 6.03081C53.9761 5.82497 53.6487 5.72205 53.2632 5.72205C52.8702 5.72205 52.539 5.82871 52.2695 6.04203C52.0001 6.25536 51.7961 6.55102 51.6576 6.92902C51.5192 7.30701 51.4499 7.74489 51.4499 8.24265C51.4499 8.74415 51.5192 9.18764 51.6576 9.57313C51.7999 9.95487 52.0038 10.2543 52.2695 10.4713C52.539 10.6847 52.8702 10.7913 53.2632 10.7913Z" fill="#6969F4"/>
<path d="M59.378 12.5541V3.93124H61.7695V12.5541H59.378ZM60.5794 2.8197C60.2239 2.8197 59.9188 2.70181 59.6643 2.46603C59.4136 2.22651 59.2882 1.9402 59.2882 1.60712C59.2882 1.27777 59.4136 0.995212 59.6643 0.759432C59.9188 0.519908 60.2239 0.400146 60.5794 0.400146C60.9349 0.400146 61.2381 0.519908 61.4888 0.759432C61.7433 0.995212 61.8706 1.27777 61.8706 1.60712C61.8706 1.9402 61.7433 2.22651 61.4888 2.46603C61.2381 2.70181 60.9349 2.8197 60.5794 2.8197Z" fill="#6969F4"/>
<path d="M66.1441 12.7169C65.5939 12.7169 65.1037 12.6214 64.6733 12.4306C64.2429 12.2359 63.9023 11.9496 63.6516 11.5716C63.4046 11.1899 63.281 10.7146 63.281 10.1457C63.281 9.66669 63.369 9.26436 63.5449 8.93876C63.7208 8.61316 63.9603 8.35118 64.2635 8.15283C64.5666 7.95447 64.9109 7.80477 65.2964 7.70372C65.6856 7.60268 66.0936 7.53157 66.5202 7.4904C67.0217 7.438 67.4259 7.38935 67.7328 7.34444C68.0397 7.29579 68.2624 7.22468 68.4008 7.13111C68.5393 7.03755 68.6086 6.89908 68.6086 6.71569V6.68201C68.6086 6.32647 68.4963 6.05139 68.2717 5.85678C68.0509 5.66216 67.7365 5.56486 67.3286 5.56486C66.8982 5.56486 66.5558 5.66029 66.3013 5.85116C66.0468 6.03829 65.8784 6.27407 65.796 6.5585L63.5842 6.37886C63.6965 5.85491 63.9173 5.40206 64.2466 5.02032C64.576 4.63484 65.0007 4.33918 65.521 4.13334C66.0449 3.92375 66.6512 3.81896 67.3398 3.81896C67.8189 3.81896 68.2773 3.8751 68.7152 3.98738C69.1568 4.09965 69.5479 4.27368 69.8885 4.50946C70.2328 4.74524 70.5042 5.04839 70.7025 5.4189C70.9009 5.78567 71 6.22542 71 6.73815V12.5541H68.7321V11.3583H68.6647C68.5262 11.6278 68.341 11.8654 68.1089 12.0713C67.8769 12.2734 67.5981 12.4324 67.2725 12.5484C66.9469 12.6607 66.5707 12.7169 66.1441 12.7169ZM66.829 11.0664C67.1808 11.0664 67.4914 10.9972 67.7609 10.8587C68.0303 10.7165 68.2418 10.5256 68.3952 10.2861C68.5487 10.0466 68.6254 9.77522 68.6254 9.47208V8.55702C68.5506 8.60568 68.4476 8.65059 68.3166 8.69176C68.1894 8.72918 68.0453 8.76474 67.8844 8.79842C67.7234 8.82836 67.5625 8.85643 67.4016 8.88263C67.2407 8.90508 67.0947 8.92566 66.9637 8.94438C66.683 8.98555 66.4379 9.05104 66.2283 9.14086C66.0187 9.23068 65.8559 9.35231 65.7399 9.50576C65.6239 9.65546 65.5659 9.84259 65.5659 10.0671C65.5659 10.3927 65.6838 10.6416 65.9195 10.8138C66.1591 10.9822 66.4622 11.0664 66.829 11.0664Z" fill="#6969F4"/>
</svg>
