<svg width="16" height="16" viewBox="0 0 16 16" fill="none" xmlns="http://www.w3.org/2000/svg">
<path fill-rule="evenodd" clip-rule="evenodd" d="M2.07761 7.18449C2.07761 6.54191 2.20418 5.90563 2.45008 5.31198C2.69598 4.71832 3.05641 4.1789 3.51077 3.72454C3.96514 3.27017 4.50455 2.90974 5.09821 2.66384C5.69187 2.41794 6.32815 2.29138 6.97073 2.29138C7.6133 2.29138 8.24958 2.41794 8.84324 2.66384C9.4369 2.90974 9.97631 3.27017 10.4307 3.72454C10.885 4.1789 11.2455 4.71832 11.4914 5.31198C11.7373 5.90563 11.8638 6.54191 11.8638 7.18449C11.8638 8.48222 11.3483 9.7268 10.4307 10.6444C9.51304 11.5621 8.26846 12.0776 6.97073 12.0776C5.67299 12.0776 4.42841 11.5621 3.51077 10.6444C2.59314 9.7268 2.07761 8.48222 2.07761 7.18449ZM6.97073 0.660339C5.93246 0.660488 4.90921 0.908435 3.98604 1.38357C3.06287 1.85871 2.26643 2.54732 1.66291 3.39217C1.05939 4.23702 0.666223 5.2137 0.516084 6.24106C0.365944 7.26842 0.463168 8.31677 0.799676 9.299C1.13618 10.2812 1.70226 11.1689 2.45085 11.8884C3.19944 12.6079 4.10893 13.1383 5.10374 13.4355C6.09854 13.7328 7.14993 13.7883 8.17052 13.5975C9.19111 13.4068 10.1514 12.9751 10.9717 12.3386L13.7338 15.1007C13.8876 15.2493 14.0936 15.3315 14.3075 15.3296C14.5213 15.3278 14.7258 15.242 14.877 15.0908C15.0282 14.9396 15.114 14.735 15.1159 14.5212C15.1177 14.3074 15.0355 14.1014 14.887 13.9476L12.1248 11.1854C12.8735 10.221 13.3366 9.06591 13.4614 7.85139C13.5862 6.63687 13.3677 5.41171 12.8308 4.31521C12.2938 3.21871 11.46 2.29488 10.424 1.64877C9.38809 1.00266 8.19164 0.660204 6.97073 0.660339ZM6.97073 10.4466C7.83588 10.4466 8.6656 10.1029 9.27736 9.49112C9.88912 8.87936 10.2328 8.04964 10.2328 7.18449C10.2328 6.31933 9.88912 5.48961 9.27736 4.87785C8.6656 4.2661 7.83588 3.92241 6.97073 3.92241C6.10557 3.92241 5.27585 4.2661 4.66409 4.87785C4.05233 5.48961 3.70865 6.31933 3.70865 7.18449C3.70865 8.04964 4.05233 8.87936 4.66409 9.49112C5.27585 10.1029 6.10557 10.4466 6.97073 10.4466Z" fill="#6969F4"/>
</svg>
